<svg width="1727" height="316" viewBox="0 0 1727 316" fill="none" xmlns="http://www.w3.org/2000/svg">
<path d="M71.3652 66.2109L150.778 132.368L150.564 201.56L127.59 182.094L120.016 154.784L71.3652 114.49V66.2109Z" fill="#75541B"/>
<path d="M230.046 66.2109L150.633 132.368L150.847 201.56L173.821 182.094L181.395 154.784L230.046 114.49V66.2109Z" fill="#2E2006"/>
<path d="M0.00585938 125.244L144.399 245.78V315.026L10.1674 194.634L0.00585938 125.244Z" fill="#75541B"/>
<path d="M301.253 125.244L156.859 245.78V315.026L292.631 194.634L301.253 125.244Z" fill="#2E2006"/>
<path fill-rule="evenodd" clip-rule="evenodd" d="M229.273 65.5859L151.436 0.621433L150.692 0L71.3657 66.2074L72.1103 66.8288L150.692 132.415L151.436 131.793L229.273 66.8288L230.018 66.2074L229.273 65.5859ZM150.692 100.001L110.202 66.2074L150.692 32.4135L191.182 66.2074L150.692 100.001ZM300.515 124.61L243.355 76.8967L242.611 76.2808L241.866 76.8967L157.223 147.548L156.913 147.806V245.712L158.705 244.216L251.341 166.895L301.26 125.231L300.515 124.61ZM181.609 195.948V156.341L201.422 139.804L225.149 159.608L181.609 195.948ZM242.611 145.034L218.883 125.231L242.611 105.428L266.338 125.231L242.611 145.034ZM59.394 76.8967L144.044 147.548L144.347 147.806V245.712L142.555 244.216L0.744566 125.852L0 125.231L0.744566 124.61L57.9049 76.8967L58.6494 76.2808L59.394 76.8967ZM34.9221 125.231L119.651 195.948V156.341L58.6494 105.428L34.9221 125.231Z" fill="url(#paint0_linear_37196_47547)"/>
<path d="M58.665 145.231V105.412L119.712 156.247V196.065L58.665 145.231Z" fill="#2E2006"/>
<path d="M242.679 145.146V105.412L218.976 125.41L242.679 145.146Z" fill="#75541B"/>
<path d="M201.456 179.501V139.768L225.159 159.765L201.456 179.501Z" fill="#2E2006"/>
<path d="M242.679 145.146V105.412L266.382 125.41L242.679 145.146Z" fill="#2E2006"/>
<path d="M58.5236 145.107V105.373L34.8203 125.371L58.5236 145.107Z" fill="#75541B"/>
<path d="M201.457 179.501V139.768L181.623 156.161L181.623 195.949L201.457 179.501Z" fill="#75541B"/>
<path d="M150.772 99.9923L150.773 32.4023L110.096 66.2291L150.772 99.9923Z" fill="#75541B"/>
<path d="M150.633 99.9923L150.632 32.4023L191.31 66.2291L150.633 99.9923Z" fill="#2E2006"/>
<path d="M396.423 101.376C389.226 101.376 385.817 104.784 385.817 111.792V218.796C385.817 225.803 389.226 229.212 396.423 229.212H441.497C478.996 229.212 499.071 208.38 499.071 165.389C499.071 122.208 478.807 101.376 441.497 101.376H396.423ZM408.165 125.996C408.165 124.291 408.923 123.723 410.627 123.723H441.497C466.307 123.723 476.724 136.033 476.724 165.199C476.724 194.554 466.307 206.865 441.497 206.865H410.627C408.923 206.865 408.165 206.296 408.165 204.592V125.996Z" fill="url(#paint1_linear_37196_47547)"/>
<path d="M557.082 129.216C532.082 129.216 522.234 143.23 522.234 162.169V196.259C522.234 215.198 532.082 229.212 557.082 229.212H618.254V209.705H557.082C546.097 209.705 541.741 203.834 541.741 195.88V188.683H589.278C613.898 188.683 623.178 178.267 623.178 159.896C623.178 140.579 613.14 129.216 589.467 129.216H557.082ZM541.741 162.358C541.741 154.593 546.097 148.533 557.082 148.533H589.278C599.126 148.533 603.482 153.457 603.482 161.033C603.482 168.419 599.505 172.964 588.709 172.964H541.741V162.358Z" fill="url(#paint2_linear_37196_47547)"/>
<path d="M702.028 101.376C664.908 101.376 644.265 122.587 644.265 165.578C644.265 208.38 664.719 229.212 702.028 229.212H719.452C756.762 229.212 777.215 208.38 777.215 165.578C777.215 122.587 756.572 101.376 719.452 101.376H702.028ZM719.452 123.723C744.073 123.723 754.678 136.223 754.678 165.389C754.678 194.744 744.073 206.865 719.452 206.865H702.028C677.219 206.865 666.613 194.744 666.613 165.578C666.613 136.223 677.408 123.723 702.028 123.723H719.452Z" fill="url(#paint3_linear_37196_47547)"/>
<path d="M829.374 129.216C809.678 129.216 802.292 138.306 802.292 158.381V229.212H822.367V161.411C822.367 152.7 826.344 148.533 835.245 148.533H870.471V129.216H829.374Z" fill="url(#paint4_linear_37196_47547)"/>
<path d="M972.909 85.8457V129.216H928.782C902.078 129.216 885.412 145.503 885.412 179.214C885.412 212.925 902.078 229.212 928.782 229.212H956.433C980.295 229.212 993.174 215.198 993.174 186.411V85.8457H972.909ZM950.562 209.705H930.676C913.441 209.705 905.677 200.804 905.677 179.214C905.677 157.624 913.441 148.533 930.676 148.533H972.909V185.464C972.909 202.509 966.659 209.705 950.562 209.705Z" fill="url(#paint5_linear_37196_47547)"/>
<path d="M1054.59 129.216C1029.6 129.216 1019.75 143.23 1019.75 162.169V196.259C1019.75 215.198 1029.6 229.212 1054.59 229.212H1115.77V209.705H1054.59C1043.61 209.705 1039.25 203.834 1039.25 195.88V188.683H1086.79C1111.41 188.683 1120.69 178.267 1120.69 159.896C1120.69 140.579 1110.65 129.216 1086.98 129.216H1054.59ZM1039.25 162.358C1039.25 154.593 1043.61 148.533 1054.59 148.533H1086.79C1096.64 148.533 1100.99 153.457 1100.99 161.033C1100.99 168.419 1097.02 172.964 1086.22 172.964H1039.25V162.358Z" fill="url(#paint6_linear_37196_47547)"/>
<path d="M1172.27 129.216C1152.57 129.216 1145.19 138.306 1145.19 158.381V229.212H1165.26V161.411C1165.26 152.7 1169.24 148.533 1178.14 148.533H1213.37V129.216H1172.27Z" fill="url(#paint7_linear_37196_47547)"/>
<path d="M1244.78 101.376C1237.59 101.376 1234.18 104.784 1234.18 111.792V218.796C1234.18 225.803 1237.59 229.212 1244.78 229.212H1301.6C1331.71 229.212 1344.4 214.44 1344.4 193.986C1344.4 179.214 1337.58 169.744 1325.46 164.82C1337.39 160.086 1343.83 151.184 1343.83 136.412C1343.83 115.58 1331.15 101.376 1301.03 101.376H1244.78ZM1256.15 173.911H1302.17C1315.24 173.911 1321.87 179.593 1321.87 190.388C1321.87 200.804 1315.62 207.054 1302.17 207.054H1258.61C1257.09 207.054 1256.15 206.486 1256.15 204.971V173.911ZM1256.15 125.617C1256.15 124.102 1257.09 123.344 1258.61 123.344H1301.79C1315.43 123.344 1321.3 129.973 1321.3 140.011C1321.3 150.427 1314.86 155.351 1301.6 155.351H1256.15V125.617Z" fill="url(#paint8_linear_37196_47547)"/>
<path d="M1407.8 129.216C1381.1 129.216 1364.43 145.503 1364.43 179.214C1364.43 212.925 1381.1 229.212 1407.8 229.212H1428.82C1455.34 229.212 1472.19 212.925 1472.19 179.214C1472.19 145.503 1455.34 129.216 1428.82 129.216H1407.8ZM1426.93 148.533C1444.16 148.533 1451.93 157.624 1451.93 179.214C1451.93 200.804 1444.16 209.705 1426.93 209.705H1409.69C1392.27 209.705 1384.69 200.804 1384.69 179.214C1384.69 157.624 1392.27 148.533 1409.69 148.533H1426.93Z" fill="url(#paint9_linear_37196_47547)"/>
<path d="M1534.86 129.216C1508.16 129.216 1491.49 145.503 1491.49 179.214C1491.49 212.925 1508.16 229.212 1534.86 229.212H1555.88C1582.4 229.212 1599.25 212.925 1599.25 179.214C1599.25 145.503 1582.4 129.216 1555.88 129.216H1534.86ZM1553.99 148.533C1571.22 148.533 1578.99 157.624 1578.99 179.214C1578.99 200.804 1571.22 209.705 1553.99 209.705H1536.75C1519.33 209.705 1511.75 200.804 1511.75 179.214C1511.75 157.624 1519.33 148.533 1536.75 148.533H1553.99Z" fill="url(#paint10_linear_37196_47547)"/>
<path d="M1623.28 85.8457V229.212H1643.36V187.547H1652.64C1670.25 187.547 1674.23 189.251 1680.1 199.668L1696.77 229.212H1719.3L1701.31 197.774C1695.25 187.358 1690.33 181.108 1680.86 178.456C1689 175.047 1693.74 169.555 1698.66 160.654L1716.08 129.216H1694.31L1677.64 159.328C1671.77 169.934 1668.55 170.691 1652.64 170.691H1643.36V85.8457H1623.28Z" fill="url(#paint11_linear_37196_47547)"/>
<path fill-rule="evenodd" clip-rule="evenodd" d="M385.65 101.132C388.424 98.395 392.269 97.4146 396.422 97.4146H441.497C460.877 97.4146 476.482 102.843 487.182 114.507C497.826 126.109 503.016 143.233 503.016 165.373C503.016 187.414 497.876 204.493 487.253 216.074C476.574 227.717 460.966 233.142 441.497 233.142H396.422C392.269 233.142 388.424 232.162 385.65 229.425C382.865 226.678 381.871 222.865 381.871 218.781V111.776C381.871 107.692 382.865 103.879 385.65 101.132ZM412.11 127.653V202.904H441.497C453.298 202.904 460.742 199.986 465.401 194.477C470.197 188.806 472.777 179.552 472.777 165.184C472.777 150.915 470.198 141.71 465.405 136.062C460.746 130.572 453.298 127.653 441.497 127.653H412.11ZM622.199 233.142H557.081C543.85 233.142 533.967 229.417 527.424 222.542C520.919 215.706 518.288 206.352 518.288 196.243V162.154C518.288 152.045 520.919 142.691 527.424 135.855C533.967 128.98 543.85 125.255 557.081 125.255H589.466C601.872 125.255 611.459 128.23 617.933 134.452C624.437 140.702 627.123 149.574 627.123 159.881C627.123 169.691 624.636 178.162 618.112 184.085C611.674 189.93 602.038 192.613 589.277 192.613H545.686V195.865C545.686 199.15 546.577 201.466 548.082 202.97C549.579 204.468 552.268 205.744 557.081 205.744H622.199V233.142ZM618.253 209.69V229.197H557.081C532.082 229.197 522.234 215.182 522.234 196.243V162.154C522.234 143.215 532.082 129.2 557.081 129.2H589.466C613.14 129.2 623.177 140.563 623.177 159.881C623.177 178.252 613.897 188.668 589.277 188.668H541.741V195.865C541.741 203.819 546.096 209.69 557.081 209.69H618.253ZM548.095 155.295C546.567 156.837 545.686 159.172 545.686 162.343V169.003H588.709C593.655 169.003 596.222 167.946 597.538 166.789C598.747 165.727 599.535 164.016 599.535 161.017C599.535 157.98 598.679 156.031 597.372 154.803C596.026 153.54 593.589 152.463 589.277 152.463H557.081C552.303 152.463 549.607 153.768 548.095 155.295ZM656.319 114.672C667.078 102.951 682.719 97.4146 702.028 97.4146H719.451C738.761 97.4146 754.401 102.951 765.16 114.672C775.865 126.334 781.16 143.496 781.16 165.563C781.16 187.53 775.915 204.561 765.219 216.111C754.474 227.715 738.83 233.142 719.451 233.142H702.028C682.649 233.142 667.005 227.715 656.26 216.111C645.564 204.561 640.319 187.53 640.319 165.563C640.319 143.496 645.614 126.334 656.319 114.672ZM743.285 136.152C738.592 130.606 731.132 127.653 719.451 127.653H702.028C690.347 127.653 682.835 130.606 678.093 136.183C673.222 141.912 670.558 151.224 670.558 165.563C670.558 179.819 673.18 188.968 678.005 194.567C682.707 200.023 690.21 202.904 702.028 202.904H719.451C731.166 202.904 738.618 200.028 743.298 194.555C748.108 188.93 750.732 179.729 750.732 165.373C750.732 151.121 748.112 141.856 743.285 136.152ZM798.345 233.142V158.366C798.345 147.996 800.223 139.487 805.515 133.614C810.895 127.643 819.004 125.255 829.373 125.255H874.416V152.463H835.244C831.335 152.463 829.343 153.382 828.273 154.464C827.194 155.555 826.312 157.559 826.312 161.396V233.142H798.345ZM829.373 129.2C809.677 129.2 802.291 138.291 802.291 158.366V229.197H822.366V161.396C822.366 152.684 826.343 148.518 835.244 148.518H870.47V129.2H829.373ZM968.963 81.8848H997.119V186.395C997.119 201.298 993.794 213.089 986.723 221.187C979.566 229.381 969.148 233.142 956.432 233.142H928.781C914.612 233.142 902.589 228.796 894.158 219.488C885.781 210.238 881.466 196.655 881.466 179.199C881.466 161.742 885.781 148.159 894.158 138.909C902.589 129.601 914.612 125.255 928.781 125.255H968.963V81.8848ZM972.909 85.8303H993.173V186.395C993.173 215.182 980.295 229.197 956.432 229.197H928.781C902.077 229.197 885.411 212.91 885.411 179.199C885.411 145.487 902.077 129.2 928.781 129.2H972.909V85.8303ZM930.675 205.744H950.561C958.12 205.744 962.361 204.046 964.853 201.306C967.429 198.474 968.963 193.645 968.963 185.448V152.463H930.675C922.733 152.463 917.834 154.537 914.758 158.271C911.533 162.185 909.621 168.729 909.621 179.199C909.621 189.67 911.534 196.156 914.746 200.018C917.813 203.705 922.709 205.744 930.675 205.744ZM1119.71 233.142H1054.59C1041.36 233.142 1031.48 229.417 1024.94 222.542C1018.43 215.706 1015.8 206.352 1015.8 196.243V162.154C1015.8 152.045 1018.43 142.691 1024.94 135.855C1031.48 128.98 1041.36 125.255 1054.59 125.255H1086.98C1099.38 125.255 1108.97 128.23 1115.45 134.452C1121.95 140.702 1124.64 149.574 1124.64 159.881C1124.64 169.691 1122.15 178.162 1115.62 184.085C1109.19 189.93 1099.55 192.613 1086.79 192.613H1043.2V195.865C1043.2 199.15 1044.09 201.466 1045.59 202.97C1047.09 204.468 1049.78 205.744 1054.59 205.744H1119.71V233.142ZM1115.77 209.69V229.197H1054.59C1029.59 229.197 1019.75 215.182 1019.75 196.243V162.154C1019.75 143.215 1029.59 129.2 1054.59 129.2H1086.98C1110.65 129.2 1120.69 140.563 1120.69 159.881C1120.69 178.252 1111.41 188.668 1086.79 188.668H1039.25V195.865C1039.25 203.819 1043.61 209.69 1054.59 209.69H1115.77ZM1045.61 155.295C1044.08 156.837 1043.2 159.172 1043.2 162.343V169.003H1086.22C1091.17 169.003 1093.73 167.946 1095.05 166.789C1096.26 165.727 1097.05 164.016 1097.05 161.017C1097.05 157.98 1096.19 156.031 1094.88 154.803C1093.54 153.54 1091.1 152.463 1086.79 152.463H1054.59C1049.82 152.463 1047.12 153.768 1045.61 155.295ZM1141.24 233.142V158.366C1141.24 147.996 1143.12 139.487 1148.41 133.614C1153.79 127.643 1161.9 125.255 1172.27 125.255H1217.31V152.463H1178.14C1174.23 152.463 1172.24 153.382 1171.17 154.464C1170.09 155.555 1169.21 157.559 1169.21 161.396V233.142H1141.24ZM1172.27 129.2C1152.57 129.2 1145.19 138.291 1145.19 158.366V229.197H1165.26V161.396C1165.26 152.684 1169.24 148.518 1178.14 148.518H1213.37V129.2H1172.27ZM1234.01 101.132C1236.79 98.395 1240.63 97.4146 1244.78 97.4146H1301.03C1316.65 97.4146 1328.43 101.093 1336.34 108.115C1344.33 115.203 1347.78 125.163 1347.78 136.397C1347.78 144.359 1346.04 151.089 1342.41 156.55C1340.19 159.885 1337.35 162.62 1333.99 164.836C1337.49 167.163 1340.45 170.037 1342.76 173.506C1346.49 179.106 1348.35 185.967 1348.35 193.971C1348.35 205.029 1344.89 215.015 1336.93 222.185C1329.03 229.304 1317.25 233.142 1301.6 233.142H1244.78C1240.63 233.142 1236.79 232.162 1234.01 229.425C1231.23 226.678 1230.23 222.865 1230.23 218.781V111.776C1230.23 107.692 1231.23 103.879 1234.01 101.132ZM1330.1 167.061C1339.31 172.395 1344.4 181.202 1344.4 193.971C1344.4 214.425 1331.71 229.197 1301.6 229.197H1244.78C1237.59 229.197 1234.18 225.788 1234.18 218.781V111.776C1234.18 104.769 1237.59 101.36 1244.78 101.36H1301.03C1331.14 101.36 1343.83 115.564 1343.83 136.397C1343.83 149.117 1339.06 157.484 1330.11 162.586C1328.67 163.409 1327.12 164.147 1325.46 164.805C1327.11 165.473 1328.65 166.224 1330.1 167.061ZM1302.17 177.841H1260.09V203.093H1302.17C1308.35 203.093 1312.19 201.651 1314.45 199.654C1316.62 197.731 1317.92 194.775 1317.92 190.372C1317.92 185.815 1316.55 182.938 1314.38 181.104C1312.07 179.167 1308.21 177.841 1302.17 177.841ZM1260.09 127.275H1301.79C1308.02 127.275 1311.79 128.791 1313.99 130.805C1316.13 132.77 1317.35 135.747 1317.35 139.995C1317.35 144.339 1316.06 146.861 1314 148.453C1311.74 150.205 1307.86 151.39 1301.6 151.39H1260.09V127.275ZM1373.18 138.909C1381.61 129.601 1393.63 125.255 1407.8 125.255H1428.82C1442.9 125.255 1454.92 129.604 1463.37 138.904C1471.77 148.15 1476.14 161.731 1476.14 179.199C1476.14 196.666 1471.77 210.247 1463.37 219.493C1454.92 228.793 1442.9 233.142 1428.82 233.142H1407.8C1393.63 233.142 1381.61 228.796 1373.18 219.488C1364.8 210.238 1360.48 196.655 1360.48 179.199C1360.48 161.742 1364.8 148.159 1373.18 138.909ZM1442.84 158.271C1439.77 154.537 1434.87 152.463 1426.93 152.463H1409.69C1401.64 152.463 1396.76 154.543 1393.71 158.262C1390.51 162.171 1388.64 168.71 1388.64 179.199C1388.64 189.69 1390.51 196.17 1393.7 200.026C1396.74 203.698 1401.62 205.744 1409.69 205.744H1426.93C1434.89 205.744 1439.79 203.705 1442.86 200.018C1446.07 196.156 1447.98 189.67 1447.98 179.199C1447.98 168.729 1446.07 162.185 1442.84 158.271ZM1500.24 138.909C1508.67 129.601 1520.69 125.255 1534.86 125.255H1555.88C1569.96 125.255 1581.98 129.604 1590.43 138.904C1598.83 148.15 1603.2 161.731 1603.2 179.199C1603.2 196.666 1598.83 210.247 1590.43 219.493C1581.98 228.793 1569.96 233.142 1555.88 233.142H1534.86C1520.69 233.142 1508.67 228.796 1500.24 219.488C1491.86 210.238 1487.54 196.655 1487.54 179.199C1487.54 161.742 1491.86 148.159 1500.24 138.909ZM1569.9 158.271C1566.83 154.537 1561.93 152.463 1553.99 152.463H1536.75C1528.7 152.463 1523.82 154.543 1520.77 158.262C1517.57 162.171 1515.7 168.71 1515.7 179.199C1515.7 189.69 1517.57 196.17 1520.76 200.026C1523.8 203.698 1528.68 205.744 1536.75 205.744H1553.99C1561.95 205.744 1566.85 203.705 1569.92 200.018C1573.13 196.156 1575.04 189.67 1575.04 179.199C1575.04 168.729 1573.13 162.185 1569.9 158.271ZM1619.34 81.8848H1647.3V166.73H1652.64C1660.83 166.73 1664.71 166.477 1667.35 165.346C1669.59 164.384 1671.32 162.58 1674.19 157.402L1691.98 125.255H1722.78L1702.11 162.548C1698.49 169.106 1694.78 174.195 1689.65 177.989C1695.97 181.903 1700.2 188.004 1704.72 195.774L1704.74 195.799L1726.11 233.142H1694.46L1676.66 201.591C1673.84 196.583 1671.91 194.496 1669.18 193.298C1666.12 191.952 1661.55 191.477 1652.64 191.477H1647.3V233.142H1619.34V81.8848ZM1685.89 180.393C1684.36 179.604 1682.69 178.955 1680.86 178.441C1682.61 177.708 1684.2 176.879 1685.67 175.941C1691.05 172.514 1694.79 167.627 1698.66 160.639L1716.08 129.2H1694.3L1677.64 159.313C1671.77 169.919 1668.55 170.676 1652.64 170.676H1643.36V85.8303H1623.28V229.197H1643.36V187.532H1652.64C1670.25 187.532 1674.23 189.236 1680.1 199.652L1696.77 229.197H1719.3L1701.31 197.759C1696.43 189.361 1692.28 183.672 1685.89 180.393ZM385.817 111.776C385.817 104.769 389.226 101.36 396.422 101.36H441.497C478.806 101.36 499.071 122.193 499.071 165.373C499.071 208.364 478.995 229.197 441.497 229.197H396.422C389.226 229.197 385.817 225.788 385.817 218.781V111.776ZM410.626 123.708C408.922 123.708 408.164 124.276 408.164 125.981V204.576C408.164 206.281 408.922 206.849 410.626 206.849H441.497C466.306 206.849 476.723 194.539 476.723 165.184C476.723 136.018 466.306 123.708 441.497 123.708H410.626ZM557.081 148.518C546.096 148.518 541.741 154.578 541.741 162.343V172.949H588.709C599.504 172.949 603.481 168.403 603.481 161.017C603.481 153.442 599.125 148.518 589.277 148.518H557.081ZM644.264 165.563C644.264 122.572 664.908 101.36 702.028 101.36H719.451C756.571 101.36 777.215 122.572 777.215 165.563C777.215 208.364 756.761 229.197 719.451 229.197H702.028C664.718 229.197 644.264 208.364 644.264 165.563ZM754.678 165.373C754.678 136.207 744.072 123.708 719.451 123.708H702.028C677.407 123.708 666.612 136.207 666.612 165.563C666.612 194.728 677.218 206.849 702.028 206.849H719.451C744.072 206.849 754.678 194.728 754.678 165.373ZM930.675 209.69H950.561C966.659 209.69 972.909 202.493 972.909 185.448V148.518H930.675C913.441 148.518 905.676 157.608 905.676 179.199C905.676 200.789 913.441 209.69 930.675 209.69ZM1054.59 148.518C1043.61 148.518 1039.25 154.578 1039.25 162.343V172.949H1086.22C1097.02 172.949 1100.99 168.403 1100.99 161.017C1100.99 153.442 1096.64 148.518 1086.79 148.518H1054.59ZM1256.15 173.896V204.955C1256.15 206.47 1257.09 207.039 1258.61 207.039H1302.17C1315.61 207.039 1321.86 200.789 1321.86 190.372C1321.86 179.577 1315.24 173.896 1302.17 173.896H1256.15ZM1258.61 123.329C1257.09 123.329 1256.15 124.087 1256.15 125.602V155.336H1301.6C1314.86 155.336 1321.3 150.412 1321.3 139.995C1321.3 129.958 1315.43 123.329 1301.79 123.329H1258.61ZM1364.43 179.199C1364.43 145.487 1381.1 129.2 1407.8 129.2H1428.82C1455.34 129.2 1472.19 145.487 1472.19 179.199C1472.19 212.91 1455.34 229.197 1428.82 229.197H1407.8C1381.1 229.197 1364.43 212.91 1364.43 179.199ZM1451.93 179.199C1451.93 157.608 1444.16 148.518 1426.93 148.518H1409.69C1392.27 148.518 1384.69 157.608 1384.69 179.199C1384.69 200.789 1392.27 209.69 1409.69 209.69H1426.93C1444.16 209.69 1451.93 200.789 1451.93 179.199ZM1491.49 179.199C1491.49 145.487 1508.16 129.2 1534.86 129.2H1555.88C1582.4 129.2 1599.25 145.487 1599.25 179.199C1599.25 212.91 1582.4 229.197 1555.88 229.197H1534.86C1508.16 229.197 1491.49 212.91 1491.49 179.199ZM1578.99 179.199C1578.99 157.608 1571.22 148.518 1553.99 148.518H1536.75C1519.33 148.518 1511.75 157.608 1511.75 179.199C1511.75 200.789 1519.33 209.69 1536.75 209.69H1553.99C1571.22 209.69 1578.99 200.789 1578.99 179.199Z" fill="url(#paint12_linear_37196_47547)"/>
<defs>
<linearGradient id="paint0_linear_37196_47547" x1="150.633" y1="6.52624" x2="150.633" y2="245.715" gradientUnits="userSpaceOnUse">
<stop stop-color="white"/>
<stop offset="0.156236" stop-color="#FBF0C1"/>
<stop offset="0.369786" stop-color="#F8E186"/>
<stop offset="0.598962" stop-color="#BA8330"/>
<stop offset="0.682299" stop-color="#BA8330"/>
<stop offset="0.880728" stop-color="#F6BF57"/>
<stop offset="1" stop-color="#3D2A07"/>
</linearGradient>
<linearGradient id="paint1_linear_37196_47547" x1="1046.97" y1="95.2522" x2="1046.97" y2="280.39" gradientUnits="userSpaceOnUse">
<stop stop-color="white"/>
<stop offset="0.15625" stop-color="#FBF0C1"/>
<stop offset="0.211954" stop-color="#F8E186"/>
<stop offset="0.565314" stop-color="#BA8330"/>
<stop offset="0.768091" stop-color="#3D2A07"/>
<stop offset="0.786458" stop-color="#F6BF57"/>
</linearGradient>
<linearGradient id="paint2_linear_37196_47547" x1="1046.97" y1="95.2522" x2="1046.97" y2="280.39" gradientUnits="userSpaceOnUse">
<stop stop-color="white"/>
<stop offset="0.15625" stop-color="#FBF0C1"/>
<stop offset="0.211954" stop-color="#F8E186"/>
<stop offset="0.565314" stop-color="#BA8330"/>
<stop offset="0.768091" stop-color="#3D2A07"/>
<stop offset="0.786458" stop-color="#F6BF57"/>
</linearGradient>
<linearGradient id="paint3_linear_37196_47547" x1="1046.97" y1="95.2522" x2="1046.97" y2="280.39" gradientUnits="userSpaceOnUse">
<stop stop-color="white"/>
<stop offset="0.15625" stop-color="#FBF0C1"/>
<stop offset="0.211954" stop-color="#F8E186"/>
<stop offset="0.565314" stop-color="#BA8330"/>
<stop offset="0.768091" stop-color="#3D2A07"/>
<stop offset="0.786458" stop-color="#F6BF57"/>
</linearGradient>
<linearGradient id="paint4_linear_37196_47547" x1="1046.97" y1="95.2522" x2="1046.97" y2="280.39" gradientUnits="userSpaceOnUse">
<stop stop-color="white"/>
<stop offset="0.15625" stop-color="#FBF0C1"/>
<stop offset="0.211954" stop-color="#F8E186"/>
<stop offset="0.565314" stop-color="#BA8330"/>
<stop offset="0.768091" stop-color="#3D2A07"/>
<stop offset="0.786458" stop-color="#F6BF57"/>
</linearGradient>
<linearGradient id="paint5_linear_37196_47547" x1="1046.97" y1="95.2522" x2="1046.97" y2="280.39" gradientUnits="userSpaceOnUse">
<stop stop-color="white"/>
<stop offset="0.15625" stop-color="#FBF0C1"/>
<stop offset="0.211954" stop-color="#F8E186"/>
<stop offset="0.565314" stop-color="#BA8330"/>
<stop offset="0.768091" stop-color="#3D2A07"/>
<stop offset="0.786458" stop-color="#F6BF57"/>
</linearGradient>
<linearGradient id="paint6_linear_37196_47547" x1="1046.97" y1="95.2522" x2="1046.97" y2="280.39" gradientUnits="userSpaceOnUse">
<stop stop-color="white"/>
<stop offset="0.15625" stop-color="#FBF0C1"/>
<stop offset="0.211954" stop-color="#F8E186"/>
<stop offset="0.565314" stop-color="#BA8330"/>
<stop offset="0.768091" stop-color="#3D2A07"/>
<stop offset="0.786458" stop-color="#F6BF57"/>
</linearGradient>
<linearGradient id="paint7_linear_37196_47547" x1="1046.97" y1="95.2522" x2="1046.97" y2="280.39" gradientUnits="userSpaceOnUse">
<stop stop-color="white"/>
<stop offset="0.15625" stop-color="#FBF0C1"/>
<stop offset="0.211954" stop-color="#F8E186"/>
<stop offset="0.565314" stop-color="#BA8330"/>
<stop offset="0.768091" stop-color="#3D2A07"/>
<stop offset="0.786458" stop-color="#F6BF57"/>
</linearGradient>
<linearGradient id="paint8_linear_37196_47547" x1="1046.97" y1="95.2522" x2="1046.97" y2="280.39" gradientUnits="userSpaceOnUse">
<stop stop-color="white"/>
<stop offset="0.15625" stop-color="#FBF0C1"/>
<stop offset="0.211954" stop-color="#F8E186"/>
<stop offset="0.565314" stop-color="#BA8330"/>
<stop offset="0.768091" stop-color="#3D2A07"/>
<stop offset="0.786458" stop-color="#F6BF57"/>
</linearGradient>
<linearGradient id="paint9_linear_37196_47547" x1="1046.97" y1="95.2522" x2="1046.97" y2="280.39" gradientUnits="userSpaceOnUse">
<stop stop-color="white"/>
<stop offset="0.15625" stop-color="#FBF0C1"/>
<stop offset="0.211954" stop-color="#F8E186"/>
<stop offset="0.565314" stop-color="#BA8330"/>
<stop offset="0.768091" stop-color="#3D2A07"/>
<stop offset="0.786458" stop-color="#F6BF57"/>
</linearGradient>
<linearGradient id="paint10_linear_37196_47547" x1="1046.97" y1="95.2522" x2="1046.97" y2="280.39" gradientUnits="userSpaceOnUse">
<stop stop-color="white"/>
<stop offset="0.15625" stop-color="#FBF0C1"/>
<stop offset="0.211954" stop-color="#F8E186"/>
<stop offset="0.565314" stop-color="#BA8330"/>
<stop offset="0.768091" stop-color="#3D2A07"/>
<stop offset="0.786458" stop-color="#F6BF57"/>
</linearGradient>
<linearGradient id="paint11_linear_37196_47547" x1="1046.97" y1="95.2522" x2="1046.97" y2="280.39" gradientUnits="userSpaceOnUse">
<stop stop-color="white"/>
<stop offset="0.15625" stop-color="#FBF0C1"/>
<stop offset="0.211954" stop-color="#F8E186"/>
<stop offset="0.565314" stop-color="#BA8330"/>
<stop offset="0.768091" stop-color="#3D2A07"/>
<stop offset="0.786458" stop-color="#F6BF57"/>
</linearGradient>
<linearGradient id="paint12_linear_37196_47547" x1="1046.97" y1="95.2372" x2="1046.97" y2="280.375" gradientUnits="userSpaceOnUse">
<stop stop-color="white"/>
<stop offset="0.15625" stop-color="#FBF0C1"/>
<stop offset="0.307292" stop-color="#F8E186"/>
<stop offset="0.53125" stop-color="#BA8330"/>
<stop offset="0.786458" stop-color="#F6BF57"/>
<stop offset="0.96875" stop-color="#3D2A07"/>
</linearGradient>
</defs>
</svg>
