<svg width="302" height="316" viewBox="0 0 302 316" fill="none" xmlns="http://www.w3.org/2000/svg">
<path d="M71.3652 66.2109L150.778 132.368L150.564 201.56L127.59 182.094L120.016 154.784L71.3652 114.49V66.2109Z" fill="#75541B"/>
<path d="M230.046 66.2109L150.633 132.368L150.847 201.56L173.821 182.094L181.395 154.784L230.046 114.49V66.2109Z" fill="#2E2006"/>
<path d="M0.00585938 125.244L144.399 245.78V315.026L10.1674 194.634L0.00585938 125.244Z" fill="#75541B"/>
<path d="M301.253 125.244L156.859 245.78V315.026L292.631 194.634L301.253 125.244Z" fill="#2E2006"/>
<path fill-rule="evenodd" clip-rule="evenodd" d="M229.273 65.5859L151.436 0.621433L150.692 0L71.3657 66.2074L72.1103 66.8288L150.692 132.415L151.436 131.793L229.273 66.8288L230.018 66.2074L229.273 65.5859ZM150.692 100.001L110.202 66.2074L150.692 32.4135L191.182 66.2074L150.692 100.001ZM300.515 124.61L243.355 76.8967L242.611 76.2808L241.866 76.8967L157.223 147.548L156.913 147.806V245.712L158.705 244.216L251.341 166.895L301.26 125.231L300.515 124.61ZM181.609 195.948V156.341L201.422 139.804L225.149 159.608L181.609 195.948ZM242.611 145.034L218.883 125.231L242.611 105.428L266.338 125.231L242.611 145.034ZM59.394 76.8967L144.044 147.548L144.347 147.806V245.712L142.555 244.216L0.744566 125.852L0 125.231L0.744566 124.61L57.9049 76.8967L58.6494 76.2808L59.394 76.8967ZM34.9221 125.231L119.651 195.948V156.341L58.6494 105.428L34.9221 125.231Z" fill="url(#paint0_linear_37196_47548)"/>
<path d="M58.665 145.231V105.412L119.712 156.247V196.065L58.665 145.231Z" fill="#2E2006"/>
<path d="M242.679 145.146V105.412L218.976 125.41L242.679 145.146Z" fill="#75541B"/>
<path d="M201.456 179.501V139.768L225.159 159.765L201.456 179.501Z" fill="#2E2006"/>
<path d="M242.679 145.146V105.412L266.382 125.41L242.679 145.146Z" fill="#2E2006"/>
<path d="M58.5236 145.107V105.373L34.8203 125.371L58.5236 145.107Z" fill="#75541B"/>
<path d="M201.457 179.501V139.768L181.623 156.161L181.623 195.949L201.457 179.501Z" fill="#75541B"/>
<path d="M150.772 99.9923L150.773 32.4023L110.096 66.2291L150.772 99.9923Z" fill="#75541B"/>
<path d="M150.633 99.9923L150.632 32.4023L191.31 66.2291L150.633 99.9923Z" fill="#2E2006"/>
<defs>
<linearGradient id="paint0_linear_37196_47548" x1="150.633" y1="6.52624" x2="150.633" y2="245.715" gradientUnits="userSpaceOnUse">
<stop stop-color="white"/>
<stop offset="0.156236" stop-color="#FBF0C1"/>
<stop offset="0.369786" stop-color="#F8E186"/>
<stop offset="0.598962" stop-color="#BA8330"/>
<stop offset="0.682299" stop-color="#BA8330"/>
<stop offset="0.880728" stop-color="#F6BF57"/>
<stop offset="1" stop-color="#3D2A07"/>
</linearGradient>
</defs>
</svg>
