<svg width="1726" height="316" viewBox="0 0 1726 316" fill="none" xmlns="http://www.w3.org/2000/svg">
<path fill-rule="evenodd" clip-rule="evenodd" d="M228.907 65.5859L151.071 0.621433L150.326 0L71 66.2074L71.7446 66.8288L150.326 132.415L151.071 131.793L228.907 66.8288L229.652 66.2074L228.907 65.5859ZM150.326 100.001L109.836 66.2074L150.326 32.4135L190.816 66.2074L150.326 100.001ZM300.516 124.61L243.355 76.8972L242.611 76.2812L241.866 76.8972L157.223 147.548L156.913 147.807V245.712L158.705 244.217L251.341 166.895L301.26 125.231L300.516 124.61ZM181.609 195.948V156.342L201.422 139.805L225.15 159.608L181.609 195.948ZM242.611 145.035L218.883 125.231L242.611 105.428L266.338 125.231L242.611 145.035ZM59.394 76.8972L144.044 147.548L144.347 147.807V245.712L142.555 244.217L0.744566 125.853L0 125.231L0.744566 124.61L57.9049 76.8972L58.6494 76.2812L59.394 76.8972ZM34.9221 125.231L119.651 195.948V156.342L58.6494 105.428L34.9221 125.231Z" fill="black"/>
<path fill-rule="evenodd" clip-rule="evenodd" d="M56.8986 108.838L38 124.979L56.8986 140.73V108.838ZM60.747 143.924L117.79 191.424V156.809L60.882 109.263L60.747 143.924Z" fill="black"/>
<path fill-rule="evenodd" clip-rule="evenodd" d="M243.154 144.651L243.253 144.569V144.734L243.154 144.651ZM243.253 105L243.154 105.083L243.253 105.167V105ZM202.026 139.518L202.031 139.355L201.931 139.438L202.026 139.518ZM222.466 124.988L241.056 109.304V140.466L222.466 124.988ZM245.055 109.304L263.645 124.988L245.055 140.466V109.304ZM199.834 143.603L184 156.691L184 191.28L199.834 178.149V143.603ZM203.833 143.659L222.423 159.343L203.833 174.821V143.659Z" fill="black"/>
<path fill-rule="evenodd" clip-rule="evenodd" d="M148.677 36.2637L113.13 65.8246L148.677 95.3299L148.677 36.2637ZM152.537 36.2637L188.084 65.8246L152.538 95.3299L152.537 36.2637Z" fill="black"/>
<path fill-rule="evenodd" clip-rule="evenodd" d="M10.1678 194.634L0.515625 128.723L144.4 249.003V315.026L10.1678 194.634Z" fill="black"/>
<path fill-rule="evenodd" clip-rule="evenodd" d="M157 248.87L300.955 128.771L292.771 194.633L157 315.025V248.87Z" fill="black"/>
<path fill-rule="evenodd" clip-rule="evenodd" d="M71 68.3047L149.406 133.623L149.195 201.708L127.225 183.093L119.651 155.782L71 115.488V68.3047Z" fill="black"/>
<path fill-rule="evenodd" clip-rule="evenodd" d="M151.262 201.898V133.624L229.68 68.2949V115.488L181.03 155.782L173.455 183.093L151.262 201.898Z" fill="black"/>
<path fill-rule="evenodd" clip-rule="evenodd" d="M385.039 101.37C387.813 98.6332 391.658 97.6528 395.811 97.6528H440.885C460.265 97.6528 475.87 103.081 486.571 114.745C497.215 126.347 502.405 143.472 502.405 165.612C502.405 187.652 497.264 204.731 486.642 216.312C475.963 227.955 460.355 233.381 440.885 233.381H395.811C391.658 233.381 387.813 232.4 385.039 229.664C382.254 226.916 381.26 223.103 381.26 219.019V112.015C381.26 107.93 382.254 104.117 385.039 101.37ZM411.499 127.892V203.142H440.885C452.686 203.142 460.131 200.224 464.789 194.715C469.585 189.044 472.166 179.79 472.166 165.422C472.166 151.154 469.587 141.948 464.794 136.3C460.135 130.81 452.687 127.892 440.885 127.892H411.499ZM621.587 233.381H556.47C543.239 233.381 533.355 229.655 526.813 222.78C520.307 215.944 517.677 206.59 517.677 196.482V162.392C517.677 152.283 520.307 142.93 526.813 136.093C533.355 129.218 543.239 125.493 556.47 125.493H588.855C601.26 125.493 610.848 128.468 617.322 134.69C623.826 140.94 626.512 149.813 626.512 160.119C626.512 169.93 624.024 178.4 617.501 184.323C611.062 190.168 601.426 192.852 588.666 192.852H545.075V196.103C545.075 199.388 545.966 201.704 547.47 203.209C548.968 204.706 551.657 205.983 556.47 205.983H621.587V233.381ZM547.484 155.533C545.956 157.076 545.075 159.41 545.075 162.581V169.241H588.097C593.044 169.241 595.61 168.184 596.927 167.027C598.136 165.965 598.924 164.254 598.924 161.256C598.924 158.218 598.068 156.269 596.76 155.042C595.415 153.778 592.978 152.702 588.666 152.702H556.47C551.692 152.702 548.996 154.006 547.484 155.533ZM655.708 114.91C666.467 103.189 682.107 97.6528 701.416 97.6528H718.84C738.149 97.6528 753.789 103.189 764.548 114.91C775.254 126.572 780.549 143.734 780.549 165.801C780.549 187.768 775.303 204.799 764.608 216.349C753.862 227.953 738.219 233.381 718.84 233.381H701.416C682.038 233.381 666.394 227.953 655.649 216.349C644.953 204.799 639.708 187.768 639.708 165.801C639.708 143.734 645.003 126.572 655.708 114.91ZM742.674 136.39C737.981 130.844 730.521 127.892 718.84 127.892H701.416C689.736 127.892 682.223 130.844 677.482 136.421C672.611 142.15 669.946 151.462 669.946 165.801C669.946 180.058 672.569 189.206 677.394 194.806C682.095 200.262 689.598 203.142 701.416 203.142H718.84C730.554 203.142 738.007 200.267 742.687 194.793C747.497 189.169 750.121 179.967 750.121 165.612C750.121 151.359 747.5 142.094 742.674 136.39ZM797.734 233.381V158.604C797.734 148.234 799.612 139.725 804.903 133.852C810.283 127.881 818.393 125.493 828.762 125.493H873.805V152.702H834.633C830.724 152.702 828.731 153.621 827.661 154.703C826.583 155.793 825.7 157.798 825.7 161.634V233.381H797.734ZM968.352 82.123H996.507V186.634C996.507 201.536 993.183 213.328 986.112 221.425C978.955 229.62 968.537 233.381 955.82 233.381H928.17C914 233.381 901.977 229.035 893.547 219.726C885.169 210.477 880.854 196.894 880.854 179.437C880.854 161.98 885.169 148.397 893.547 139.147C901.977 129.839 914 125.493 928.17 125.493H968.352V82.123ZM930.064 205.983H949.949C957.508 205.983 961.749 204.284 964.241 201.544C966.817 198.712 968.352 193.884 968.352 185.687V152.702H930.064C922.122 152.702 917.222 154.775 914.147 158.509C910.922 162.424 909.01 168.967 909.01 179.437C909.01 189.909 910.923 196.394 914.135 200.256C917.201 203.943 922.098 205.983 930.064 205.983ZM1119.1 233.381H1053.98C1040.75 233.381 1030.87 229.655 1024.33 222.78C1017.82 215.944 1015.19 206.59 1015.19 196.482V162.392C1015.19 152.283 1017.82 142.93 1024.33 136.093C1030.87 129.218 1040.75 125.493 1053.98 125.493H1086.37C1098.77 125.493 1108.36 128.468 1114.83 134.69C1121.34 140.94 1124.02 149.813 1124.02 160.119C1124.02 169.93 1121.54 178.4 1115.01 184.323C1108.58 190.168 1098.94 192.852 1086.18 192.852H1042.59V196.103C1042.59 199.388 1043.48 201.704 1044.98 203.209C1046.48 204.706 1049.17 205.983 1053.98 205.983H1119.1V233.381ZM1045 155.533C1043.47 157.076 1042.59 159.41 1042.59 162.581V169.241H1085.61C1090.56 169.241 1093.12 168.184 1094.44 167.027C1095.65 165.965 1096.44 164.254 1096.44 161.256C1096.44 158.218 1095.58 156.269 1094.27 155.042C1092.93 153.778 1090.49 152.702 1086.18 152.702H1053.98C1049.2 152.702 1046.51 154.006 1045 155.533ZM1140.63 233.381V158.604C1140.63 148.234 1142.51 139.725 1147.8 133.852C1153.18 127.881 1161.29 125.493 1171.66 125.493H1216.7V152.702H1177.53C1173.62 152.702 1171.63 153.621 1170.56 154.703C1169.48 155.793 1168.6 157.798 1168.6 161.634V233.381H1140.63ZM1233.4 101.37C1236.17 98.6332 1240.02 97.6528 1244.17 97.6528H1300.42C1316.04 97.6528 1327.82 101.332 1335.73 108.353C1343.72 115.441 1347.17 125.401 1347.17 136.635C1347.17 144.597 1345.43 151.327 1341.8 156.788C1339.58 160.124 1336.74 162.859 1333.38 165.074C1336.88 167.401 1339.84 170.275 1342.15 173.745C1345.88 179.344 1347.74 186.205 1347.74 194.209C1347.74 205.268 1344.28 215.253 1336.32 222.424C1328.42 229.542 1316.64 233.381 1300.99 233.381H1244.17C1240.02 233.381 1236.17 232.4 1233.4 229.664C1230.61 226.916 1229.62 223.103 1229.62 219.019V112.015C1229.62 107.93 1230.61 104.117 1233.4 101.37ZM1301.56 178.08H1259.48V203.331H1301.56C1307.74 203.331 1311.57 201.889 1313.84 199.893C1316.01 197.969 1317.31 195.014 1317.31 190.611C1317.31 186.054 1315.94 183.177 1313.76 181.343C1311.46 179.405 1307.6 178.08 1301.56 178.08ZM1259.48 127.513H1301.18C1307.41 127.513 1311.18 129.029 1313.38 131.043C1315.52 133.008 1316.74 135.985 1316.74 140.234C1316.74 144.577 1315.44 147.099 1313.39 148.692C1311.13 150.443 1307.25 151.628 1300.99 151.628H1259.48V127.513ZM1372.56 139.147C1381 129.839 1393.02 125.493 1407.19 125.493H1428.21C1442.29 125.493 1454.31 129.843 1462.76 139.143C1471.16 148.388 1475.53 161.969 1475.53 179.437C1475.53 196.905 1471.16 210.486 1462.76 219.731C1454.31 229.031 1442.29 233.381 1428.21 233.381H1407.19C1393.02 233.381 1381 229.035 1372.56 219.726C1364.19 210.477 1359.87 196.894 1359.87 179.437C1359.87 161.98 1364.19 148.397 1372.56 139.147ZM1442.23 158.509C1439.16 154.775 1434.26 152.702 1426.32 152.702H1409.08C1401.03 152.702 1396.15 154.782 1393.1 158.5C1389.9 162.409 1388.03 168.948 1388.03 179.437C1388.03 189.928 1389.9 196.408 1393.09 200.264C1396.13 203.937 1401.01 205.983 1409.08 205.983H1426.32C1434.28 205.983 1439.18 203.943 1442.24 200.256C1445.46 196.394 1447.37 189.909 1447.37 179.437C1447.37 168.967 1445.46 162.424 1442.23 158.509ZM1499.62 139.147C1508.06 129.839 1520.08 125.493 1534.25 125.493H1555.27C1569.35 125.493 1581.37 129.843 1589.82 139.143C1598.22 148.388 1602.59 161.969 1602.59 179.437C1602.59 196.905 1598.22 210.486 1589.82 219.731C1581.37 229.031 1569.35 233.381 1555.27 233.381H1534.25C1520.08 233.381 1508.06 229.035 1499.62 219.726C1491.25 210.477 1486.93 196.894 1486.93 179.437C1486.93 161.98 1491.25 148.397 1499.62 139.147ZM1569.29 158.509C1566.22 154.775 1561.32 152.702 1553.38 152.702H1536.14C1528.09 152.702 1523.21 154.782 1520.16 158.5C1516.96 162.409 1515.09 168.948 1515.09 179.437C1515.09 189.928 1516.96 196.408 1520.15 200.264C1523.19 203.937 1528.07 205.983 1536.14 205.983H1553.38C1561.34 205.983 1566.24 203.943 1569.3 200.256C1572.52 196.394 1574.43 189.909 1574.43 179.437C1574.43 168.967 1572.52 162.424 1569.29 158.509ZM1618.73 82.123H1646.69V166.969H1652.03C1660.22 166.969 1664.1 166.715 1666.73 165.585C1668.98 164.622 1670.71 162.818 1673.57 157.64L1691.37 125.493H1722.17L1701.5 162.787C1697.87 169.344 1694.17 174.433 1689.04 178.227C1695.36 182.142 1699.59 188.242 1704.11 196.013L1704.12 196.037L1725.5 233.381H1693.85L1676.05 201.829C1673.23 196.821 1671.3 194.734 1668.57 193.536C1665.51 192.19 1660.94 191.715 1652.03 191.715H1646.69V233.381H1618.73V82.123Z" fill="black"/>
</svg>
