<svg width="302" height="316" viewBox="0 0 302 316" fill="none" xmlns="http://www.w3.org/2000/svg">
<path fill-rule="evenodd" clip-rule="evenodd" d="M228.907 65.5859L151.071 0.621433L150.326 0L71 66.2074L71.7446 66.8288L150.326 132.415L151.071 131.793L228.907 66.8288L229.652 66.2074L228.907 65.5859ZM150.326 100.001L109.836 66.2074L150.326 32.4135L190.816 66.2074L150.326 100.001ZM300.516 124.61L243.355 76.8972L242.611 76.2812L241.866 76.8972L157.223 147.548L156.913 147.807V245.712L158.705 244.217L251.341 166.895L301.26 125.231L300.516 124.61ZM181.609 195.948V156.342L201.422 139.805L225.15 159.608L181.609 195.948ZM242.611 145.035L218.883 125.231L242.611 105.428L266.338 125.231L242.611 145.035ZM59.394 76.8972L144.044 147.548L144.347 147.807V245.712L142.555 244.217L0.744566 125.853L0 125.231L0.744566 124.61L57.9049 76.8972L58.6494 76.2812L59.394 76.8972ZM34.9221 125.231L119.651 195.948V156.342L58.6494 105.428L34.9221 125.231Z" fill="black"/>
<path fill-rule="evenodd" clip-rule="evenodd" d="M56.8986 108.838L38 124.979L56.8986 140.73V108.838ZM60.747 143.924L117.79 191.424V156.809L60.882 109.263L60.747 143.924Z" fill="black"/>
<path fill-rule="evenodd" clip-rule="evenodd" d="M243.154 144.651L243.253 144.569V144.734L243.154 144.651ZM243.253 105L243.154 105.083L243.253 105.167V105ZM202.026 139.518L202.031 139.355L201.931 139.438L202.026 139.518ZM222.466 124.988L241.056 109.304V140.466L222.466 124.988ZM245.055 109.304L263.645 124.988L245.055 140.466V109.304ZM199.834 143.603L184 156.691L184 191.28L199.834 178.149V143.603ZM203.833 143.659L222.423 159.343L203.833 174.821V143.659Z" fill="black"/>
<path fill-rule="evenodd" clip-rule="evenodd" d="M148.677 36.2637L113.13 65.8246L148.677 95.3299L148.677 36.2637ZM152.537 36.2637L188.084 65.8246L152.538 95.3299L152.537 36.2637Z" fill="black"/>
<path fill-rule="evenodd" clip-rule="evenodd" d="M10.1678 194.634L0.515625 128.723L144.4 249.003V315.026L10.1678 194.634Z" fill="black"/>
<path fill-rule="evenodd" clip-rule="evenodd" d="M157 248.87L300.955 128.771L292.771 194.633L157 315.025V248.87Z" fill="black"/>
<path fill-rule="evenodd" clip-rule="evenodd" d="M71 68.3047L149.406 133.623L149.195 201.708L127.225 183.093L119.651 155.782L71 115.488V68.3047Z" fill="black"/>
<path fill-rule="evenodd" clip-rule="evenodd" d="M151.262 201.898V133.624L229.68 68.2949V115.488L181.03 155.782L173.455 183.093L151.262 201.898Z" fill="black"/>
</svg>
